<svg xmlns="http://www.w3.org/2000/svg" version="1.1" xmlns:xlink="http://www.w3.org/1999/xlink" xmlns:svgjs="http://svgjs.dev/svgjs" width="1440" height="8000" preserveAspectRatio="none" viewBox="0 0 1440 8000"><g mask="url(&quot;#SvgjsMask1820&quot;)" fill="none"><rect width="1440" height="8000" x="0" y="0" fill="url(&quot;#SvgjsLinearGradient1821&quot;)"></rect><path d="M0 0L503.88 0L0 2160.42z" fill="rgba(255, 255, 255, .1)"></path><path d="M0 2160.42L503.88 0L706.98 0L0 5394.34z" fill="rgba(255, 255, 255, .075)"></path><path d="M0 5394.34L706.98 0L784.78 0L0 6666.18z" fill="rgba(255, 255, 255, .05)"></path><path d="M0 6666.18L784.78 0L1153.83 0L0 7324.820000000001z" fill="rgba(255, 255, 255, .025)"></path><path d="M1440 8000L1192.34 8000L1440 5941.9z" fill="rgba(0, 0, 0, .1)"></path><path d="M1440 5941.9L1192.34 8000L939.4499999999999 8000L1440 3987.7z" fill="rgba(0, 0, 0, .075)"></path><path d="M1440 3987.7L939.45 8000L493.46000000000004 8000L1440 2086.43z" fill="rgba(0, 0, 0, .05)"></path><path d="M1440 2086.4300000000003L493.46000000000004 8000L318.32000000000005 8000L1440 621.3600000000004z" fill="rgba(0, 0, 0, .025)"></path></g><defs><mask id="SvgjsMask1820"><rect width="1440" height="8000" fill="#ffffff"></rect></mask><linearGradient x1="50%" y1="100%" x2="50%" y2="0%" gradientUnits="userSpaceOnUse" id="SvgjsLinearGradient1821"><stop stop-color="rgba(0, 0, 0, 0.75)" offset="0.64"></stop><stop stop-color="rgba(36, 24, 57, 1)" offset="0.86"></stop><stop stop-color="rgba(98, 62, 147, 1)" offset="0.99"></stop></linearGradient></defs></svg>